<?xml version="1.0" standalone="no"?>
<!DOCTYPE svg PUBLIC "-//W3C//DTD SVG 20010904//EN"
 "http://www.w3.org/TR/2001/REC-SVG-20010904/DTD/svg10.dtd">
<svg version="1.0" xmlns="http://www.w3.org/2000/svg"
 width="500.000000pt" height="500.000000pt" viewBox="0 0 500.000000 500.000000"
 preserveAspectRatio="xMidYMid meet">

<g transform="translate(0.000000,500.000000) scale(0.100000,-0.100000)"
fill="#000000" stroke="none">
<path d="M2330 4993 c-354 -26 -742 -141 -1035 -305 -703 -395 -1154 -1056
-1271 -1863 -24 -164 -24 -486 0 -650 124 -855 619 -1541 1381 -1915 361 -177
687 -253 1090 -254 303 0 507 32 793 126 669 219 1226 731 1506 1383 136 316
200 630 200 985 0 360 -63 668 -205 998 -324 756 -1049 1326 -1859 1461 -218
36 -419 48 -600 34z m466 -208 c433 -61 830 -233 1161 -501 116 -95 287 -273
380 -396 247 -328 406 -726 453 -1133 13 -116 13 -394 0 -510 -50 -433 -230
-861 -506 -1202 -95 -116 -273 -287 -395 -379 -334 -251 -730 -409 -1141 -453
-125 -14 -371 -14 -496 0 -410 44 -810 203 -1140 452 -284 214 -517 497 -677
822 -162 329 -234 639 -235 1003 0 282 32 489 117 742 108 327 281 611 526
867 194 201 389 343 642 468 224 110 458 183 710 220 125 18 474 18 601 0z"/>
<path d="M2400 4277 c-3 -3 -124 -33 -270 -67 -146 -34 -386 -90 -535 -125
-148 -35 -342 -80 -430 -100 -88 -20 -239 -55 -335 -78 l-175 -43 -3 -41 -3
-40 138 -22 c218 -33 388 -59 390 -57 1 0 -2 20 -7 44 -4 25 -4 45 2 48 5 4
78 15 161 25 530 66 954 130 990 150 53 28 132 35 179 16 24 -10 36 -21 34
-32 -3 -21 -32 -39 -48 -29 -6 4 -8 3 -5 -3 10 -15 -32 -21 -94 -12 -58 8
-302 -21 -879 -104 l-295 -43 4 -84 c1 -47 4 -86 6 -88 1 -1 23 7 49 18 25 12
50 19 55 16 4 -3 11 -92 15 -198 4 -106 9 -253 12 -325 l6 -133 -29 0 c-84 0
-283 144 -283 204 0 17 -6 26 -16 26 -8 0 -29 14 -46 30 -27 28 -30 36 -25 76
5 45 34 84 63 84 8 0 20 12 28 28 8 15 39 53 70 84 l56 57 0 65 0 66 -20 -20
c-11 -11 -25 -20 -31 -20 -22 0 -149 -92 -189 -137 -58 -66 -99 -155 -109
-238 l-8 -69 -67 -63 -68 -63 27 -31 c14 -18 49 -53 77 -78 l51 -45 15 22 c19
28 26 28 40 -3 16 -34 18 -30 -30 -58 -55 -32 -159 -141 -185 -192 -52 -102
-65 -236 -38 -391 26 -147 79 -237 174 -292 l46 -27 1 -90 c0 -75 5 -100 26
-147 33 -71 89 -115 159 -124 27 -4 52 -10 54 -15 3 -4 7 -47 9 -96 8 -209
116 -369 315 -466 l86 -42 151 -3 c87 -2 169 1 191 7 51 14 120 64 141 102 37
66 36 66 69 7 17 -30 47 -69 67 -86 37 -32 37 -32 149 -32 102 0 116 2 148 24
l36 24 29 -23 c29 -24 31 -24 269 -25 l239 0 56 55 56 56 48 -22 c67 -29 175
-36 255 -15 136 35 205 95 233 202 15 57 22 64 64 64 37 0 142 33 204 65 67
34 147 111 177 169 51 99 41 229 -27 382 l-30 67 70 73 c133 137 176 290 131
466 -25 98 -64 174 -139 271 l-61 78 35 55 c114 179 97 339 -52 472 -56 50
-64 61 -64 93 0 54 -36 184 -66 240 -15 27 -25 51 -23 53 2 2 60 16 129 31
215 46 215 46 218 82 4 43 -17 59 -90 67 -35 3 -270 40 -523 81 -957 155
-1151 187 -1175 192 -14 2 -27 2 -30 0z m1219 -673 c25 -14 69 -52 96 -85 135
-160 151 -312 43 -404 -34 -29 -147 -85 -171 -85 -15 0 -20 62 -33 423 -6 139
-4 177 6 177 7 0 33 -12 59 -26z m-74 -560 c-9 -14 -20 -22 -25 -19 -6 4 -10
1 -10 -4 0 -21 -161 -90 -290 -124 -190 -51 -812 -112 -832 -83 -4 6 -8 23 -8
37 l0 26 168 7 c229 10 407 30 574 67 216 47 373 107 413 156 l20 25 3 -32 c2
-17 -4 -42 -13 -56z m-2135 -24 c9 -11 125 -58 168 -70 39 -10 42 -13 42 -45
0 -34 -20 -49 -35 -25 -4 6 -10 8 -14 6 -12 -8 -103 29 -94 38 4 4 0 4 -10 0
-10 -3 -17 -1 -17 5 0 6 -6 11 -13 11 -24 0 -67 55 -67 84 0 26 2 27 18 15 9
-8 19 -16 22 -19z m2237 -124 c101 -151 143 -310 143 -543 l0 -134 -110 -71
c-102 -66 -133 -98 -94 -98 8 0 46 20 83 44 38 24 78 49 91 56 25 13 25 22 -7
-123 l-15 -68 -86 3 c-72 3 -87 0 -87 -12 0 -11 18 -17 74 -22 41 -4 76 -10
79 -13 6 -6 -24 -86 -41 -110 -13 -16 -16 -16 -45 -1 -17 9 -38 16 -47 16 -29
0 -15 -30 25 -50 50 -25 47 -31 -51 -135 -167 -176 -398 -278 -723 -321 -157
-21 -659 -15 -806 10 -268 44 -464 132 -598 269 l-53 54 58 51 c45 40 55 54
46 63 -13 13 -16 11 -86 -44 -20 -16 -41 -26 -47 -22 -11 7 -53 85 -48 90 2 2
39 14 83 28 51 16 81 31 83 41 5 22 -23 20 -113 -8 l-76 -24 -10 26 c-6 15
-16 53 -24 84 -10 45 -10 58 -1 58 7 0 59 -16 116 -35 57 -19 108 -35 112 -35
4 0 8 9 8 19 0 15 -24 27 -127 62 l-128 44 0 170 c0 140 5 189 24 275 26 122
108 380 120 380 5 0 14 -7 22 -16 35 -42 208 -101 380 -129 155 -25 427 -38
674 -32 570 15 1059 128 1117 258 7 16 17 28 23 26 5 -2 33 -39 62 -81z
m-1445 -29 c4 -7 8 -23 8 -37 l0 -25 -112 6 c-62 4 -114 7 -115 8 -2 0 -3 17
-3 37 l0 37 107 -7 c64 -5 111 -12 115 -19z"/>
<path d="M2003 2410 c-66 -27 -79 -155 -21 -217 29 -31 63 -29 99 6 25 25 29
37 29 85 0 67 -15 103 -51 122 -16 8 -29 14 -31 13 -2 0 -13 -4 -25 -9z"/>
<path d="M3011 2391 c-65 -65 -30 -221 49 -221 56 0 100 86 81 158 -21 75 -86
107 -130 63z"/>
<path d="M2376 2030 c-55 -17 -53 -42 10 -113 19 -20 34 -41 34 -46 0 -5 -12
-23 -26 -40 -51 -60 -143 -60 -202 0 -19 20 -37 29 -46 26 -62 -24 63 -127
153 -127 34 0 93 28 127 61 l30 29 20 -21 c32 -35 92 -60 145 -61 85 0 175 60
141 94 -7 7 -26 1 -56 -17 -39 -23 -55 -27 -97 -23 -42 4 -58 12 -87 42 l-36
36 47 48 c53 54 58 74 22 98 -29 19 -137 28 -179 14z"/>
</g>
</svg>
